<svg width="336" height="362" viewBox="0 0 336 362" fill="none" xmlns="http://www.w3.org/2000/svg">
<g clip-path="url(#clip0)">
<path d="M297.225 0C290.088 0 284.302 5.78831 284.302 12.9288V60.1565C217.769 -4.28461 111.617 -2.56501 47.2038 63.9956C16.8473 95.3643 -0.0876449 137.338 -0.00359488 181C-0.00359488 188.14 5.78223 193.928 12.9197 193.928C20.0571 193.928 25.8422 188.14 25.8422 181C25.8581 102.457 89.5143 38.7978 168.024 38.8137C207.896 38.8213 245.931 55.5817 272.853 85.005L215.605 104.1C208.824 106.357 205.156 113.684 207.412 120.467C209.667 127.25 216.992 130.921 223.772 128.664L301.31 102.807C306.603 101.044 310.167 96.0802 310.149 90.4994V12.9281C310.149 5.78831 304.363 0 297.225 0Z" fill="#6B6E74"/>
<path d="M323.072 168.071C315.935 168.071 310.149 173.86 310.149 181C310.133 259.543 246.477 323.202 167.967 323.186C128.095 323.178 90.0599 306.418 63.1381 276.995L120.387 257.9C127.167 255.643 130.836 248.315 128.58 241.532C126.324 234.749 119 231.079 112.22 233.336L34.6815 259.193C29.3886 260.956 25.8244 265.92 25.8419 271.5V349.072C25.8419 356.212 31.6277 362.001 38.7651 362.001C45.9026 362.001 51.6884 356.212 51.6884 349.072V301.843C118.221 366.284 224.374 364.566 288.787 298.004C319.143 266.635 336.078 224.661 335.994 181C335.996 173.86 330.21 168.071 323.072 168.071Z" fill="#6B6E74"/>
</g>
<defs>
<clipPath id="clip0">
<rect width="336" height="362" fill="white"/>
</clipPath>
</defs>
</svg>
