<svg width="512" height="512" viewBox="0 0 512 512" fill="none" xmlns="http://www.w3.org/2000/svg">
<path d="M111.051 352C122.096 352 131.051 343.046 131.051 332C131.051 320.954 122.096 312 111.051 312C100.005 312 91.0508 320.954 91.0508 332C91.0508 343.046 100.005 352 111.051 352Z" fill="#42B3FF"/>
<path d="M169.051 384C180.096 384 189.051 375.046 189.051 364C189.051 352.954 180.096 344 169.051 344C158.005 344 149.051 352.954 149.051 364C149.051 375.046 158.005 384 169.051 384Z" fill="#42B3FF"/>
<path d="M142.031 110C142.031 92.906 128.125 79 111.031 79C93.9373 79 80.0312 92.906 80.0312 110C80.0312 127.094 93.9373 141 111.031 141C128.125 141 142.031 127.094 142.031 110Z" fill="#42B3FF"/>
<path d="M107.564 270H113.432C120.281 270 126.653 266.496 130.321 260.713C140.555 244.58 153.667 230.271 166.347 216.434C193.177 187.157 220.919 156.882 220.965 110.019C220.893 49.354 171.338 0 110.498 0C49.6583 0 0.10225 49.354 0.03125 110.062C0.07725 156.881 27.8193 187.155 54.6493 216.433C67.3282 230.271 80.4413 244.579 90.6753 260.713C94.3433 266.496 100.714 270 107.564 270ZM84.1383 189.408C59.5123 162.535 40.0612 141.308 40.0312 110.065C40.0763 71.431 71.6873 40 110.498 40C149.309 40 180.92 71.431 180.964 110.022C180.934 141.308 161.483 162.535 136.856 189.409C128.031 199.039 119.016 208.878 110.498 219.693C101.979 208.878 92.9643 199.039 84.1383 189.408Z" fill="#42B3FF"/>
<path d="M285.055 448C296.1 448 305.055 439.046 305.055 428C305.055 416.954 296.1 408 285.055 408C274.009 408 265.055 416.954 265.055 428C265.055 439.046 274.009 448 285.055 448Z" fill="#42B3FF"/>
<path d="M402.031 234C384.937 234 371.031 247.906 371.031 265C371.031 282.094 384.937 296 402.031 296C419.125 296 433.031 282.094 433.031 265C433.031 247.906 419.125 234 402.031 234Z" fill="#42B3FF"/>
<path d="M228.051 416C239.096 416 248.051 407.046 248.051 396C248.051 384.954 239.096 376 228.051 376C217.005 376 208.051 384.954 208.051 396C208.051 407.046 217.005 416 228.051 416Z" fill="#42B3FF"/>
<path d="M401.498 155C340.657 155 291.102 204.354 291.031 265.062C291.076 311.637 319.414 341.697 346.818 370.767C360.063 384.816 373.759 399.344 384.142 415.713C387.951 421.718 394.428 425.003 401.049 425.003C404.713 425.003 408.421 423.996 411.743 421.889C421.07 415.973 423.836 403.615 417.919 394.287C405.487 374.688 390.458 358.746 375.924 343.328C350.859 316.739 331.061 295.738 331.03 265.065C331.076 226.431 362.687 195 401.498 195C440.309 195 471.92 226.431 471.965 265.022C471.94 290.534 460.105 309.099 441.018 330.786C433.721 339.078 434.527 351.716 442.818 359.014C451.109 366.311 463.749 365.506 471.046 357.214C492.275 333.093 511.926 305.235 511.966 265.019C511.894 204.354 462.339 155 401.498 155Z" fill="#42B3FF"/>
<path d="M344.055 480C355.1 480 364.055 471.046 364.055 460C364.055 448.954 355.1 440 344.055 440C333.009 440 324.055 448.954 324.055 460C324.055 471.046 333.009 480 344.055 480Z" fill="#42B3FF"/>
<path d="M401.555 512C412.6 512 421.555 503.046 421.555 492C421.555 480.954 412.6 472 401.555 472C390.509 472 381.555 480.954 381.555 492C381.555 503.046 390.509 512 401.555 512Z" fill="#42B3FF"/>
</svg>
