<svg width="512" height="381" viewBox="0 0 512 381" fill="none" xmlns="http://www.w3.org/2000/svg">
<path d="M256.379 292.092C231.908 292.092 212 311.935 212 336.313C212 360.699 231.908 380.55 256.379 380.55C280.858 380.55 300.766 360.699 300.766 336.313C300.766 311.935 280.854 292.092 256.379 292.092Z" fill="#42B3FF"/>
<path d="M364.165 240.804C335.273 211.928 296.814 196.018 255.887 196.018C215.119 196.018 176.765 211.823 147.88 240.517C136.214 252.127 136.194 271.041 147.832 282.671C153.485 288.333 161.012 291.442 169.024 291.442C176.999 291.442 184.498 288.349 190.143 282.736C207.721 265.267 231.069 255.644 255.887 255.644C280.799 255.644 304.211 265.328 321.801 282.901C327.455 288.547 334.978 291.664 342.981 291.664C350.965 291.664 358.459 288.571 364.109 282.958C375.791 271.347 375.811 252.442 364.165 240.804Z" fill="#42B3FF"/>
<path d="M503.261 102.171C437.205 36.2783 349.348 0 255.89 0C162.558 0 74.7897 36.1935 8.75461 101.93C-2.91147 113.539 -2.91955 132.454 8.73845 144.084C14.3878 149.717 21.9027 152.814 29.8981 152.814C37.8895 152.814 45.3963 149.729 51.0456 144.1C105.782 89.6176 178.529 59.6064 255.89 59.6064C333.365 59.6064 406.185 89.6782 460.933 144.306C466.582 149.943 474.109 153.052 482.101 153.052C490.088 153.052 497.595 149.951 503.24 144.33C514.91 132.711 514.923 113.79 503.261 102.171Z" fill="#42B3FF"/>
<path d="M431.948 173.225C384.928 126.314 322.402 100.482 255.887 100.482C189.492 100.482 127.059 126.233 80.0798 172.978C74.4224 178.604 71.309 186.086 71.2969 194.053C71.2969 202.012 74.3981 209.503 80.0474 215.136C85.6967 220.773 93.2157 223.883 101.211 223.883C109.194 223.883 116.701 220.781 122.359 215.169C158.047 179.661 205.471 160.101 255.887 160.101C306.407 160.101 353.895 179.73 389.608 215.358C395.266 221.004 402.781 224.113 410.78 224.113C418.767 224.113 426.278 221.012 431.92 215.391C437.569 209.766 440.69 202.283 440.694 194.316C440.702 186.349 437.593 178.866 431.948 173.225Z" fill="#42B3FF"/>
</svg>
