<svg width="513" height="513" viewBox="0 0 513 513" fill="none" xmlns="http://www.w3.org/2000/svg">
<g clip-path="url(#clip0)">
<path d="M23.5421 496.019L496.02 23.5414V496.019H23.5421ZM499.306 15.6131C499.302 15.6113 499.297 15.6095 499.293 15.6077L499.306 15.6131Z" stroke="#42B3FF" stroke-width="32"/>
<mask id="path-2-inside-1" fill="white">
<path d="M96.0186 341.352C90.1276 341.352 85.3516 336.576 85.3516 330.685V288.018C85.3516 282.127 90.1276 277.351 96.0186 277.351C101.91 277.351 106.686 282.127 106.686 288.018V304.935L152.467 259.154C156.704 255.062 163.457 255.179 167.55 259.416C171.542 263.55 171.542 270.103 167.55 274.236L103.55 338.236C101.551 340.232 98.8426 341.352 96.0186 341.352Z"/>
</mask>
<path d="M96.0186 341.352C90.1276 341.352 85.3516 336.576 85.3516 330.685V288.018C85.3516 282.127 90.1276 277.351 96.0186 277.351C101.91 277.351 106.686 282.127 106.686 288.018V304.935L152.467 259.154C156.704 255.062 163.457 255.179 167.55 259.416C171.542 263.55 171.542 270.103 167.55 274.236L103.55 338.236C101.551 340.232 98.8426 341.352 96.0186 341.352Z" fill="#FFC107"/>
<path d="M106.686 304.935H74.6856V382.19L129.313 327.563L106.686 304.935ZM152.467 259.154L130.236 236.136L130.036 236.33L129.839 236.527L152.467 259.154ZM167.55 259.416L190.569 237.188L190.565 237.183L167.55 259.416ZM167.55 274.236L190.177 296.864L190.373 296.667L190.566 296.468L167.55 274.236ZM103.55 338.236L126.16 360.881L126.168 360.872L126.177 360.864L103.55 338.236ZM96.0186 309.352C107.801 309.352 117.352 318.903 117.352 330.685H53.3516C53.3516 354.249 72.4545 373.352 96.0186 373.352V309.352ZM117.352 330.685V288.018H53.3516V330.685H117.352ZM117.352 288.018C117.352 299.8 107.801 309.351 96.0186 309.351V245.351C72.4545 245.351 53.3516 264.454 53.3516 288.018H117.352ZM96.0186 309.351C84.2365 309.351 74.6856 299.8 74.6856 288.018H138.686C138.686 264.454 119.583 245.351 96.0186 245.351V309.351ZM74.6856 288.018V304.935H138.686V288.018H74.6856ZM129.313 327.563L175.094 281.782L129.839 236.527L84.0581 282.308L129.313 327.563ZM174.697 282.172C166.222 290.357 152.719 290.122 144.534 281.649L190.565 237.183C174.194 220.237 147.185 219.768 130.236 236.136L174.697 282.172ZM144.53 281.645C136.549 273.38 136.546 260.274 144.533 252.005L190.566 296.468C206.537 279.932 206.534 253.72 190.569 237.188L144.53 281.645ZM144.922 251.609L80.9222 315.609L126.177 360.864L190.177 296.864L144.922 251.609ZM80.9391 315.592C84.9417 311.595 90.3664 309.352 96.0186 309.352V373.352C107.319 373.352 118.159 368.869 126.16 360.881L80.9391 315.592Z" fill="#42B3FF" mask="url(#path-2-inside-1)"/>
<mask id="path-4-inside-2" fill="white">
<path d="M138.686 341.352H96.0186C90.1276 341.352 85.3516 336.576 85.3516 330.685C85.3516 324.794 90.1276 320.018 96.0186 320.018H138.686C144.577 320.018 149.353 324.794 149.353 330.685C149.353 336.576 144.577 341.352 138.686 341.352Z"/>
</mask>
<path d="M138.686 341.352H96.0186C90.1276 341.352 85.3516 336.576 85.3516 330.685C85.3516 324.794 90.1276 320.018 96.0186 320.018H138.686C144.577 320.018 149.353 324.794 149.353 330.685C149.353 336.576 144.577 341.352 138.686 341.352Z" fill="#FFC107"/>
<path d="M138.686 309.352H96.0186V373.352H138.686V309.352ZM96.0186 309.352C107.801 309.352 117.352 318.903 117.352 330.685H53.3516C53.3516 354.249 72.4545 373.352 96.0186 373.352V309.352ZM117.352 330.685C117.352 342.467 107.801 352.018 96.0186 352.018V288.018C72.4545 288.018 53.3516 307.121 53.3516 330.685H117.352ZM96.0186 352.018H138.686V288.018H96.0186V352.018ZM138.686 352.018C126.903 352.018 117.353 342.467 117.353 330.685H181.353C181.353 307.121 162.25 288.018 138.686 288.018V352.018ZM117.353 330.685C117.353 318.903 126.903 309.352 138.686 309.352V373.352C162.25 373.352 181.353 354.249 181.353 330.685H117.353Z" fill="#42B3FF" mask="url(#path-4-inside-2)"/>
<mask id="path-6-inside-3" fill="white">
<path d="M288.019 384.019C282.128 384.019 277.352 379.243 277.352 373.352V288.019C277.352 282.128 282.128 277.352 288.019 277.352C293.91 277.352 298.686 282.128 298.686 288.019V347.603L312.467 333.822C316.704 329.729 323.457 329.847 327.55 334.084C331.543 338.218 331.543 344.771 327.55 348.905L295.55 380.905C293.551 382.898 290.843 384.018 288.019 384.019Z"/>
</mask>
<path d="M288.019 384.019C282.128 384.019 277.352 379.243 277.352 373.352V288.019C277.352 282.128 282.128 277.352 288.019 277.352C293.91 277.352 298.686 282.128 298.686 288.019V347.603L312.467 333.822C316.704 329.729 323.457 329.847 327.55 334.084C331.543 338.218 331.543 344.771 327.55 348.905L295.55 380.905C293.551 382.898 290.843 384.018 288.019 384.019Z" fill="#42B3FF"/>
<path d="M288.019 384.019L288.019 416.019L288.03 416.019L288.019 384.019ZM298.686 347.603H266.686V424.858L321.313 370.23L298.686 347.603ZM312.467 333.822L290.234 310.807L290.035 310.999L289.839 311.195L312.467 333.822ZM327.55 334.084L350.566 311.853L350.565 311.851L327.55 334.084ZM327.55 348.905L350.177 371.532L350.373 371.336L350.566 371.137L327.55 348.905ZM295.55 380.905L318.143 403.566L318.16 403.549L318.177 403.532L295.55 380.905ZM288.019 352.019C299.801 352.019 309.352 361.57 309.352 373.352H245.352C245.352 396.916 264.454 416.019 288.019 416.019V352.019ZM309.352 373.352V288.019H245.352V373.352H309.352ZM309.352 288.019C309.352 299.801 299.801 309.352 288.019 309.352V245.352C264.454 245.352 245.352 264.455 245.352 288.019H309.352ZM288.019 309.352C276.236 309.352 266.686 299.801 266.686 288.019H330.686C330.686 264.455 311.583 245.352 288.019 245.352V309.352ZM266.686 288.019V347.603H330.686V288.019H266.686ZM321.313 370.23L335.094 356.449L289.839 311.195L276.058 324.976L321.313 370.23ZM334.7 356.837C326.221 365.028 312.715 364.786 304.534 356.317L350.565 311.851C334.198 294.908 307.187 294.43 290.234 310.807L334.7 356.837ZM304.533 356.316C296.548 348.049 296.548 334.94 304.533 326.674L350.566 371.137C366.537 354.602 366.537 328.388 350.566 311.853L304.533 356.316ZM304.922 326.278L272.922 358.278L318.177 403.532L350.177 371.532L304.922 326.278ZM272.956 358.244C276.953 354.259 282.366 352.021 288.007 352.019L288.03 416.019C299.319 416.015 310.148 411.538 318.143 403.566L272.956 358.244Z" fill="#42B3FF" mask="url(#path-6-inside-3)"/>
<mask id="path-8-inside-4" fill="white">
<path d="M288.019 384.019C285.188 384.024 282.471 382.904 280.467 380.904L248.467 348.904C244.375 344.667 244.492 337.914 248.729 333.821C252.863 329.829 259.416 329.829 263.549 333.821L295.549 365.821C299.708 369.993 299.698 376.747 295.526 380.906C293.533 382.894 290.834 384.013 288.019 384.019Z"/>
</mask>
<path d="M288.019 384.019C285.188 384.024 282.471 382.904 280.467 380.904L248.467 348.904C244.375 344.667 244.492 337.914 248.729 333.821C252.863 329.829 259.416 329.829 263.549 333.821L295.549 365.821C299.708 369.993 299.698 376.747 295.526 380.906C293.533 382.894 290.834 384.013 288.019 384.019Z" fill="#42B3FF"/>
<path d="M288.019 384.019L288.075 416.019L288.087 416.019L288.019 384.019ZM280.467 380.904L257.839 403.532L257.851 403.543L257.862 403.554L280.467 380.904ZM248.467 348.904L225.449 371.134L225.642 371.335L225.839 371.532L248.467 348.904ZM248.729 333.821L226.5 310.802L226.496 310.806L248.729 333.821ZM263.549 333.821L286.176 311.194L285.98 310.997L285.78 310.805L263.549 333.821ZM295.549 365.821L318.211 343.229L318.194 343.211L318.176 343.194L295.549 365.821ZM295.526 380.906L272.934 358.243L272.927 358.25L295.526 380.906ZM287.962 352.019C293.619 352.009 299.057 354.248 303.071 358.254L257.862 403.554C265.884 411.56 276.756 416.039 288.075 416.019L287.962 352.019ZM303.094 358.277L271.094 326.277L225.839 371.532L257.839 403.532L303.094 358.277ZM271.484 326.674C279.669 335.149 279.434 348.652 270.962 356.836L226.496 310.806C209.549 327.176 209.08 354.186 225.449 371.134L271.484 326.674ZM270.957 356.84C262.693 364.821 249.587 364.825 241.317 356.838L285.78 310.805C269.245 294.833 243.033 294.837 226.5 310.802L270.957 356.84ZM240.921 356.449L272.921 388.449L318.176 343.194L286.176 311.194L240.921 356.449ZM272.886 388.413C264.57 380.071 264.587 366.564 272.934 358.243L318.118 403.569C334.808 386.931 334.846 359.915 318.211 343.229L272.886 388.413ZM272.927 358.25C276.918 354.269 282.319 352.031 287.95 352.019L288.087 416.019C299.349 415.995 310.148 411.519 318.125 403.562L272.927 358.25Z" fill="#42B3FF" mask="url(#path-8-inside-4)"/>
<path d="M14.4407 505.122L14.4445 505.118L14.44 505.123L14.4407 505.122Z" fill="#42B3FF" stroke="#42B3FF" stroke-width="32"/>
<mask id="path-11-inside-5" fill="white">
<path d="M233.721 289C229.849 289.007 226.133 287.475 223.392 284.739L121.271 182.614C115.576 176.918 115.576 167.683 121.271 161.985L237.979 45.2715C243.676 39.5762 252.91 39.5762 258.608 45.2715L360.729 147.396C366.424 153.093 366.424 162.328 360.729 168.026L244.021 284.739C241.285 287.467 237.582 288.999 233.721 289ZM152.229 172.287L233.721 253.782L329.801 157.697L248.31 76.2015L152.229 172.287Z"/>
</mask>
<path d="M233.721 289C229.849 289.007 226.133 287.475 223.392 284.739L121.271 182.614C115.576 176.918 115.576 167.683 121.271 161.985L237.979 45.2715C243.676 39.5762 252.91 39.5762 258.608 45.2715L360.729 147.396C366.424 153.093 366.424 162.328 360.729 168.026L244.021 284.739C241.285 287.467 237.582 288.999 233.721 289ZM152.229 172.287L233.721 253.782L329.801 157.697L248.31 76.2015L152.229 172.287Z" fill="#42B3FF"/>
<path d="M233.721 289L233.709 257L233.687 257L233.664 257L233.721 289ZM223.392 284.739L200.764 307.366L200.775 307.378L200.787 307.389L223.392 284.739ZM121.271 182.614L98.6406 205.239L98.6434 205.241L121.271 182.614ZM121.271 161.985L98.6433 139.358L98.6379 139.363L121.271 161.985ZM237.979 45.2715L215.354 22.6418L215.352 22.6445L237.979 45.2715ZM258.608 45.2715L281.236 22.6445L281.231 22.6391L258.608 45.2715ZM360.729 147.396L383.359 124.772L383.357 124.77L360.729 147.396ZM360.729 168.026L383.357 190.653L383.362 190.648L360.729 168.026ZM244.021 284.739L266.614 307.4L266.631 307.383L266.648 307.366L244.021 284.739ZM152.229 172.287L129.601 149.66L106.975 172.287L129.601 194.914L152.229 172.287ZM233.721 253.782L211.093 276.409L233.721 299.038L256.348 276.409L233.721 253.782ZM329.801 157.697L352.429 180.324L375.055 157.697L352.429 135.07L329.801 157.697ZM248.31 76.2015L270.937 53.5746L248.31 30.9457L225.682 53.5746L248.31 76.2015ZM233.664 257C238.281 256.992 242.72 258.819 245.997 262.09L200.787 307.389C209.546 316.131 221.417 321.022 233.777 321L233.664 257ZM246.02 262.113L143.899 159.988L98.6434 205.241L200.764 307.366L246.02 262.113ZM143.902 159.99C150.701 166.791 150.697 177.81 143.905 184.606L98.6379 139.363C80.4555 157.555 80.4516 187.044 98.6406 205.239L143.902 159.99ZM143.899 184.612L260.607 67.8984L215.352 22.6445L98.6434 139.358L143.899 184.612ZM260.605 67.9011C253.803 74.7011 242.782 74.6972 235.986 67.9038L281.231 22.6391C263.039 4.45513 233.548 4.45123 215.354 22.6418L260.605 67.9011ZM235.98 67.8984L338.101 170.023L383.357 124.77L281.236 22.6445L235.98 67.8984ZM338.098 170.021C331.299 163.22 331.303 152.201 338.095 145.405L383.362 190.648C401.544 172.456 401.548 142.966 383.359 124.772L338.098 170.021ZM338.101 145.399L221.393 262.113L266.648 307.366L383.357 190.653L338.101 145.399ZM221.427 262.079C224.685 258.83 229.1 257.002 233.709 257L233.732 321C246.063 320.996 257.886 316.103 266.614 307.4L221.427 262.079ZM129.601 194.914L211.093 276.409L256.348 231.155L174.857 149.66L129.601 194.914ZM256.348 276.409L352.429 180.324L307.174 135.07L211.093 231.155L256.348 276.409ZM352.429 135.07L270.937 53.5746L225.682 98.8284L307.174 180.324L352.429 135.07ZM225.682 53.5746L129.601 149.66L174.857 194.914L270.937 98.8284L225.682 53.5746Z" fill="#42B3FF" mask="url(#path-11-inside-5)"/>
<mask id="path-13-inside-6" fill="white">
<path d="M96.0186 341.352C90.1276 341.352 85.3516 336.576 85.3516 330.685V288.018C85.3516 282.127 90.1276 277.351 96.0186 277.351C101.91 277.351 106.686 282.127 106.686 288.018V304.935L152.467 259.154C156.704 255.062 163.457 255.179 167.55 259.416C171.542 263.55 171.542 270.103 167.55 274.236L103.55 338.236C101.551 340.232 98.8426 341.352 96.0186 341.352Z"/>
</mask>
<path d="M96.0186 341.352C90.1276 341.352 85.3516 336.576 85.3516 330.685V288.018C85.3516 282.127 90.1276 277.351 96.0186 277.351C101.91 277.351 106.686 282.127 106.686 288.018V304.935L152.467 259.154C156.704 255.062 163.457 255.179 167.55 259.416C171.542 263.55 171.542 270.103 167.55 274.236L103.55 338.236C101.551 340.232 98.8426 341.352 96.0186 341.352Z" fill="#42B3FF"/>
<path d="M106.686 304.935H74.6856V382.19L129.313 327.563L106.686 304.935ZM152.467 259.154L130.236 236.136L130.036 236.33L129.839 236.527L152.467 259.154ZM167.55 259.416L190.569 237.188L190.565 237.183L167.55 259.416ZM167.55 274.236L190.177 296.864L190.373 296.667L190.566 296.468L167.55 274.236ZM103.55 338.236L126.16 360.881L126.168 360.872L126.177 360.864L103.55 338.236ZM96.0186 309.352C107.801 309.352 117.352 318.903 117.352 330.685H53.3516C53.3516 354.249 72.4545 373.352 96.0186 373.352V309.352ZM117.352 330.685V288.018H53.3516V330.685H117.352ZM117.352 288.018C117.352 299.8 107.801 309.351 96.0186 309.351V245.351C72.4545 245.351 53.3516 264.454 53.3516 288.018H117.352ZM96.0186 309.351C84.2365 309.351 74.6856 299.8 74.6856 288.018H138.686C138.686 264.454 119.583 245.351 96.0186 245.351V309.351ZM74.6856 288.018V304.935H138.686V288.018H74.6856ZM129.313 327.563L175.094 281.782L129.839 236.527L84.0581 282.308L129.313 327.563ZM174.697 282.172C166.222 290.357 152.719 290.122 144.534 281.649L190.565 237.183C174.194 220.237 147.185 219.768 130.236 236.136L174.697 282.172ZM144.53 281.645C136.549 273.38 136.546 260.274 144.533 252.005L190.566 296.468C206.537 279.932 206.534 253.72 190.569 237.188L144.53 281.645ZM144.922 251.609L80.9222 315.609L126.177 360.864L190.177 296.864L144.922 251.609ZM80.9391 315.592C84.9417 311.595 90.3664 309.352 96.0186 309.352V373.352C107.319 373.352 118.159 368.869 126.16 360.881L80.9391 315.592Z" fill="#42B3FF" mask="url(#path-13-inside-6)"/>
<mask id="path-15-inside-7" fill="white">
<path d="M138.686 341.352H96.0186C90.1276 341.352 85.3516 336.576 85.3516 330.685C85.3516 324.794 90.1276 320.018 96.0186 320.018H138.686C144.577 320.018 149.353 324.794 149.353 330.685C149.353 336.576 144.577 341.352 138.686 341.352Z"/>
</mask>
<path d="M138.686 341.352H96.0186C90.1276 341.352 85.3516 336.576 85.3516 330.685C85.3516 324.794 90.1276 320.018 96.0186 320.018H138.686C144.577 320.018 149.353 324.794 149.353 330.685C149.353 336.576 144.577 341.352 138.686 341.352Z" fill="#42B3FF"/>
<path d="M138.686 309.352H96.0186V373.352H138.686V309.352ZM96.0186 309.352C107.801 309.352 117.352 318.903 117.352 330.685H53.3516C53.3516 354.249 72.4545 373.352 96.0186 373.352V309.352ZM117.352 330.685C117.352 342.467 107.801 352.018 96.0186 352.018V288.018C72.4545 288.018 53.3516 307.121 53.3516 330.685H117.352ZM96.0186 352.018H138.686V288.018H96.0186V352.018ZM138.686 352.018C126.903 352.018 117.353 342.467 117.353 330.685H181.353C181.353 307.121 162.25 288.018 138.686 288.018V352.018ZM117.353 330.685C117.353 318.903 126.903 309.352 138.686 309.352V373.352C162.25 373.352 181.353 354.249 181.353 330.685H117.353Z" fill="#42B3FF" mask="url(#path-15-inside-7)"/>
</g>
<defs>
<clipPath id="clip0">
<rect width="512.019" height="512.019" fill="white"/>
</clipPath>
</defs>
</svg>
