<svg width="362" height="362" viewBox="0 0 362 362" fill="none" xmlns="http://www.w3.org/2000/svg">
<path d="M289.883 323.113C289.883 344.59 272.473 362 250.996 362H144.941H38.8867C17.4099 362 0 344.59 0 323.113V217.059V111.004C0 89.5271 17.4099 72.1172 38.8867 72.1172H134.336C140.193 72.1172 144.941 76.8656 144.941 82.7227V107.469C144.941 113.326 140.193 118.074 134.336 118.074H129.033C114.39 118.074 102.52 129.945 102.52 144.588C102.52 159.231 114.39 171.102 129.033 171.102H134.336C140.193 171.102 144.941 175.85 144.941 181.707V217.059H190.898V201.15C190.898 186.507 202.769 174.637 217.412 174.637C232.055 174.637 243.926 186.507 243.926 201.15V217.059H279.277C285.134 217.059 289.883 221.807 289.883 227.664V323.113Z" fill="#6B6E74"/>
</svg>
