<svg width="362" height="362" viewBox="0 0 362 362" fill="none" xmlns="http://www.w3.org/2000/svg">
<path d="M323.113 0L227.664 0C221.807 0 217.059 4.74842 217.059 10.6055L217.059 45.957H201.15C186.507 45.957 174.637 57.8274 174.637 72.4707C174.637 87.114 186.507 98.9844 201.15 98.9844L217.059 98.9844V134.336C217.059 140.193 221.807 144.941 227.664 144.941L252.41 144.941C258.267 144.941 263.016 140.193 263.016 134.336V129.033C263.016 114.39 274.886 102.52 289.529 102.52C304.173 102.52 316.043 114.39 316.043 129.033V134.336C316.043 140.193 320.791 144.941 326.648 144.941H351.395C357.252 144.941 362 140.193 362 134.336V38.8867C362 17.4099 344.59 0 323.113 0Z" fill="#6B6E74"/>
</svg>
