<svg width="424" height="362" viewBox="0 0 424 362" fill="none" xmlns="http://www.w3.org/2000/svg">
<g clip-path="url(#clip0)">
<path d="M243.138 0H76.0129C68.4264 0 62.2759 6.1505 62.2759 13.737C62.2759 21.3234 68.4264 27.4739 76.0129 27.4739H147.419C132.354 36.9088 118.77 48.4959 107.106 61.8081H13.737C6.1505 61.8089 0 67.9602 0 75.5467C0 83.1332 6.1505 89.2837 13.737 89.2837H87.2332C71.3845 116.161 62.2751 147.466 62.2751 180.862C62.2751 219.721 74.5968 255.756 95.5335 285.27H56.5569C48.9704 285.27 42.8199 291.42 42.8199 299.007C42.8199 306.593 48.9704 312.744 56.5569 312.744H119.51C128.076 320.778 137.421 327.988 147.419 334.249H15.1539C7.56742 334.249 1.41692 340.4 1.41692 347.986C1.41692 355.573 7.56742 361.723 15.1539 361.723H243.138C342.867 361.723 424 280.588 424 180.861C424 81.1341 342.866 0 243.138 0ZM243.138 334.251C158.56 334.251 89.7507 265.442 89.7507 180.863C89.7507 96.2838 158.56 27.4748 243.138 27.4748C327.716 27.4748 396.525 96.2838 396.525 180.862C396.525 265.44 327.717 334.251 243.138 334.251Z" fill="#6B6E74"/>
</g>
<defs>
<clipPath id="clip0">
<rect width="424" height="361.72" fill="white"/>
</clipPath>
</defs>
</svg>
