<svg width="362" height="362" viewBox="0 0 362 362" fill="none" xmlns="http://www.w3.org/2000/svg">
<path d="M181.205 69C119.335 69 69 119.335 69 181.205C69 218.101 86.9033 250.892 114.477 271.355C114.729 271.569 114.98 271.784 115.253 271.98C115.559 272.203 115.873 272.411 116.19 272.605C134.545 285.698 156.991 293.41 181.205 293.41C205.42 293.41 227.865 285.698 246.221 272.605C246.539 272.411 246.852 272.203 247.158 271.98C247.43 271.783 247.682 271.567 247.934 271.355C275.507 250.892 293.411 218.102 293.411 181.205C293.411 119.336 243.076 69 181.205 69ZM194.942 97.5944C221.75 101.984 244.366 118.994 256.464 142.308L220.891 153.867C214.712 144.924 205.594 138.168 194.943 134.995V97.5944H194.942ZM201.946 181.205C201.946 192.641 192.642 201.945 181.205 201.945C169.769 201.945 160.465 192.642 160.465 181.205C160.465 169.768 169.769 160.464 181.205 160.464C192.642 160.464 201.946 169.768 201.946 181.205ZM167.468 97.5944V134.995C156.815 138.168 147.699 144.924 141.519 153.867L105.947 142.308C118.046 118.994 140.661 101.983 167.468 97.5944ZM120.973 240.736C105.837 225.422 96.4748 204.387 96.4748 181.205C96.4748 176.863 96.8044 172.598 97.437 168.431L133.021 179.993C133.011 180.397 132.989 180.798 132.989 181.205C132.989 192.215 136.708 202.37 142.943 210.496L120.973 240.736ZM181.205 265.935C167.54 265.935 154.623 262.681 143.182 256.909L165.157 226.665C170.181 228.443 175.58 229.421 181.205 229.421C186.831 229.421 192.23 228.443 197.254 226.665L219.229 256.909C207.787 262.679 194.87 265.935 181.205 265.935ZM241.437 240.736L219.466 210.497C225.702 202.371 229.421 192.216 229.421 181.205C229.421 180.799 229.401 180.398 229.389 179.994L264.973 168.432C265.606 172.599 265.935 176.864 265.935 181.205C265.936 204.387 256.575 225.422 241.437 240.736Z" fill="#6B6E74"/>
</svg>
